HIERARCHY
ROOT Hips
{
	OFFSET 0.000000 0.000000 0.000000 
	CHANNELS 6 Xposition Yposition Zposition Yrotation Zrotation Xrotation 
	JOINT Lumbar
	{
		OFFSET 0.000000 0.000000 0.000000 
		CHANNELS 3 Zrotation Xrotation Yrotation
		JOINT Neck
		{
			OFFSET 0.000000 0.445665 0.000000 
			CHANNELS 3 Zrotation Xrotation Yrotation
			End Site
			{
				OFFSET 0.000000 0.227535 0.000000 
			}
		}
		JOINT RightShoulder
		{
			OFFSET 0.019635 0.377685 0.194865 
			CHANNELS 3 Zrotation Xrotation Yrotation
			JOINT RightElbow
			{
				OFFSET 0.000000 -0.243375 0.000000 
				CHANNELS 2 Zrotation Yrotation
				JOINT RightWrist
				{
					OFFSET 0.000000 -0.264825 0.000000 
					CHANNELS 2 Zrotation Xrotation
					End Site
					{
						OFFSET 0.006600 -0.176220 0.000990 
					}
				}
			}
		}
		JOINT LeftShoulder
		{
			OFFSET 0.019635 0.377685 -0.194865 
			CHANNELS 3 Zrotation Xrotation Yrotation
			JOINT LeftElbow
			{
				OFFSET 0.000000 -0.243375 0.000000 
				CHANNELS 2 Zrotation Yrotation
				JOINT LeftWrist
				{
					OFFSET 0.000000 -0.264825 0.000000 
					CHANNELS 2 Zrotation Xrotation
					End Site
					{
						OFFSET 0.006600 -0.176220 -0.000990 
					}
				}
			}
		}
	}
	JOINT RightHip
	{
		OFFSET 0.052140 -0.069960 0.075570 
		CHANNELS 3 Zrotation Xrotation Yrotation
		JOINT RightKnee
		{
			OFFSET 0.000000 -0.402270 0.000000 
			CHANNELS 1 Zrotation
			JOINT RightAnkle
			{
				OFFSET 0.000000 -0.404085 0.000000 
				CHANNELS 3 Zrotation Xrotation Yrotation
				End Site
				{
					OFFSET 0.204105 -0.089430 0.008415 
				}
			}
		}
	}
	JOINT LeftHip
	{
		OFFSET 0.052140 -0.069960 -0.075570 
		CHANNELS 3 Zrotation Xrotation Yrotation
		JOINT LeftKnee
		{
			OFFSET 0.000000 -0.402270 0.000000 
			CHANNELS 1 Zrotation
			JOINT LeftAnkle
			{
				OFFSET 0.000000 -0.404085 0.000000 
				CHANNELS 3 Zrotation Xrotation Yrotation
				End Site
				{
					OFFSET 0.204105 -0.089430 -0.008415 
				}
			}
		}
	}
}
MOTION
Frames: 25
Frame Time: 0.02
0.00379 0.00218 0.00481 -13.98372 -20.92138 3.94078 42.654 2.77164 -3.21337 -20.4257 -5.23052 -0.49942 -17.64244 -13.42609 -8.63774 35.64625 91.23024 4.41212 0.95425 -28.51836 22.11162 -16.38102 47.35675 -67.10025 -1.42938 5.49971 33.46757 0.58816 -10.26597 -20.97286 -7.46424 -4.41452 -3.0213 38.35072 11.16197 9.2647 -26.69099 -9.3771 4.38063 3.08285
0.00717 0.00279 0.0029 -14.26781 -20.99776 3.87212 42.88966 2.75882 -3.42212 -20.19772 -5.03724 -0.50001 -17.58461 -13.27527 -8.3649 35.81783 91.19994 4.4612 0.94819 -28.42471 21.72675 -15.24748 47.60565 -70.65397 0.05873 4.84095 33.34823 0.53472 -10.01108 -20.8935 -7.49164 -4.4287 -3.02904 38.12456 10.72341 7.94043 -26.63036 -9.49477 4.49866 3.15957
0.01054 0.00341 0.00099 -14.55135 -21.07417 3.80364 43.12495 2.74596 -3.63039 -19.97027 -4.84417 -0.5006 -17.52702 -13.1247 -8.09291 35.98857 91.16991 4.51016 0.94219 -28.33155 21.34267 -14.11659 47.85415 -74.20384 1.54429 4.18313 33.2294 0.48117 -9.75719 -20.81441 -7.51893 -4.44275 -3.03671 37.89913 10.28632 6.62158 -26.56997 -9.61188 4.61627 3.23602
0.01391 0.00402 -0.00091 -14.83462 -21.15036 3.73519 43.35997 2.73316 -3.83852 -19.74297 -4.65144 -0.50118 -17.46937 -12.97431 -7.82086 36.15957 91.13947 4.55903 0.93611 -28.23822 20.9589 -12.98636 48.10236 -77.74828 3.0283 3.52615 33.11046 0.42785 -9.50312 -20.73531 -7.54624 -4.45687 -3.04442 37.67368 9.84914 5.3016 -26.50954 -9.72915 4.73393 3.3125
0.01729 0.00464 -0.00282 -15.11831 -21.22638 3.66658 43.59518 2.72043 -4.04709 -19.51522 -4.45862 -0.50177 -17.41148 -12.82374 -7.54812 36.33155 91.10942 4.60819 0.93008 -28.14431 20.57452 -11.85394 48.35078 -81.29246 4.51367 2.86885 32.99093 0.37472 -9.24797 -20.65592 -7.57369 -4.47115 -3.05221 37.44745 9.41045 3.9757 -26.44884 -9.84706 4.85201 3.38928
0.02065 0.00525 -0.00472 -15.40152 -21.30361 3.59838 43.83057 2.70732 -4.25471 -19.28839 -4.26503 -0.50236 -17.35454 -12.67318 -7.2778 36.49967 91.07984 4.65684 0.92421 -28.05274 20.19112 -10.72641 48.5994 -84.85322 5.99931 2.21012 32.87352 0.32031 -8.99673 -20.57745 -7.60062 -4.48472 -3.05963 37.22369 8.97673 2.67174 -26.38912 -9.96249 4.96864 3.46502
0.02403 0.00587 -0.00662 -15.68537 -21.3784 3.52944 44.06549 2.69498 -4.46396 -19.05999 -4.07325 -0.50294 -17.29568 -12.52281 -7.00252 36.67531 91.04742 4.70594 0.91772 -27.95659 19.80607 -9.58998 48.84749 -88.3804 7.4838 1.55443 32.7521 0.26855 -8.73793 -20.49727 -7.62856 -4.4997 -3.06779 36.99532 8.53354 1.32516 -26.32753 -10.08276 5.08807 3.54276
0.0274 0.00648 -0.00853 -15.96866 -21.45528 3.46113 44.30056 2.68195 -4.6718 -18.83299 -3.87973 -0.50353 -17.23875 -12.37218 -6.73253 36.84413 91.02116 4.75559 0.91233 -27.86461 19.42274 -8.46233 49.09579 -91.9318 8.96747 0.89696 32.63417 0.21432 -8.48607 -20.41856 -7.65559 -4.51339 -3.07527 36.771 8.09898 0.01773 -26.2676 -10.19859 5.20492 3.61867
0.03075 0.0071 -0.01044 -16.25135 -21.53541 3.39377 44.53709 2.66795 -4.87769 -18.60774 -3.68421 -0.50412 -17.18352 -12.22148 -6.46606 37.00419 90.9884 4.80211 0.90619 -27.77795 19.04048 -7.34251 49.34562 -95.54238 10.4586 0.23277 32.52131 0.15709 -8.24275 -20.34205 -7.68141 -4.52545 -3.08188 36.55233 7.67523 -1.24157 -26.20991 -10.30892 5.31865 3.69234
0.03418 0.00772 -0.01233 -16.53772 -21.59894 3.3215 44.76908 2.65917 -5.0941 -18.37252 -3.50054 -0.50469 -17.11651 -12.07189 -6.17046 37.21339 90.95086 4.85522 0.89807 -27.66134 18.64896 -6.16886 49.59051 -98.90162 11.93232 -0.40645 32.38169 0.11718 -7.95045 -20.2541 -7.71389 -4.54673 -3.09341 36.30325 7.19002 -2.77696 -26.13998 -10.45067 5.45041 3.77885
0.03745 0.00832 -0.01426 -16.81612 -21.69614 3.25923 45.00816 2.63959 -5.28873 -18.15831 -3.29175 -0.50531 -17.07565 -11.91955 -5.942 37.31971 90.95033 4.90168 0.89818 -27.60748 18.27902 -5.11455 49.84329 -102.7331 13.42616 -1.08942 32.29697 0.04074 -7.76136 -20.1895 -7.73255 -4.54868 -3.09463 36.11702 6.83406 -3.73047 -26.09546 -10.5263 5.54409 3.83829
0.0403 0.00882 -0.0162 -17.07473 -21.89853 3.22778 45.28764 2.5884 -5.41962 -18.0025 -3.0145 -0.50605 -17.0967 -11.76389 -5.84989 37.13473 90.81577 4.86594 0.8854 -27.73075 17.95176 -4.34231 50.13795 -108.36328 15.11596 -1.96919 32.378 -0.13694 -7.85792 -20.19614 -7.71116 -4.49625 -3.06682 36.11615 6.83956 -3.06609 -26.12476 -10.41735 5.53254 3.82248
0.04299 0.0093 -0.01819 -17.32523 -22.13275 3.20579 45.57049 2.52674 -5.52934 -17.86768 -2.71216 -0.50684 -17.1459 -11.60549 -5.83192 36.84835 90.75109 4.83244 0.88577 -27.91591 17.64916 -3.69784 50.43623 -114.38161 16.80181 -2.8798 32.51195 -0.35098 -8.05659 -20.22502 -7.67638 -4.42476 -3.02885 36.17643 6.97356 -1.82139 -26.1789 -10.24263 5.48292 3.77967
0.04574 0.00979 -0.02019 -17.57775 -22.34357 3.17724 45.838 2.47114 -5.65141 -17.7227 -2.42072 -0.5076 -17.18859 -11.44457 -5.81403 36.61395 90.82229 4.84339 0.90548 -28.06979 17.34619 -3.02515 50.72032 -119.88499 18.39516 -3.72479 32.61101 -0.54791 -8.20827 -20.23886 -7.64904 -4.36274 -2.99593 36.19972 7.04435 -0.85597 -26.21892 -10.10003 5.45118 3.7498
0.04853 0.01027 -0.02204 -17.83619 -22.59059 3.15813 46.16334 2.40996 -5.7621 -17.58018 -2.13044 -0.50837 -17.20456 -11.29622 -5.66258 36.35346 90.23108 4.67439 0.82536 -28.23794 16.99782 -2.22866 51.05961 -126.7893 20.37877 -4.78315 32.75341 -0.74795 -8.36698 -20.273 -7.61564 -4.29689 -2.96092 36.26015 7.13581 0.17653 -26.27061 -9.94778 5.41682 3.71698
0.0512 0.01076 -0.02423 -18.08175 -22.77175 3.12177 46.36962 2.35799 -5.89122 -17.43776 -1.83296 -0.50914 -17.28319 -11.12518 -5.79574 36.12449 90.97952 4.86566 0.94749 -28.38999 16.74949 -1.71787 51.28197 -130.90419 21.55841 -5.41013 32.82125 -0.94941 -8.5298 -20.27082 -7.59206 -4.23499 -2.92816 36.26 7.21453 1.20653 -26.30428 -9.80017 5.37901 3.68397
0.05363 0.01127 -0.02734 -18.28214 -22.74583 3.03365 46.24048 2.33323 -6.07881 -17.28848 -1.51189 -0.50985 -17.52472 -10.856 -6.79395 35.99776 95.90585 6.1834 1.70193 -28.49107 16.77488 -1.98547 51.20464 -126.90212 20.43304 -4.78842 32.64278 -1.15215 -8.72715 -20.15729 -7.59579 -4.18411 -2.90158 36.05778 7.22731 2.08737 -26.27857 -9.68069 5.34029 3.65675
0.05593 0.01179 -0.0308 -18.4722 -22.6556 2.92809 45.99206 2.31815 -6.28536 -17.13904 -1.18637 -0.51056 -17.82869 -10.57033 -8.05914 35.90824 102.0926 7.84088 2.64621 -28.57216 16.89962 -2.53224 51.0051 -120.13704 18.51404 -3.74057 32.39253 -1.35396 -8.91732 -20.00765 -7.61039 -4.13856 -2.87803 35.79607 7.22261 2.94475 -26.23448 -9.56845 5.29963 3.63037
0.05827 0.01231 -0.03412 -18.67435 -22.6065 2.83181 45.80263 2.29921 -6.48145 -16.99085 -0.86925 -0.51126 -18.1065 -10.31658 -9.13663 35.80779 107.36799 9.25366 3.45157 -28.65673 16.97639 -2.9376 50.84562 -114.84874 17.01564 -2.9209 32.19313 -1.55199 -9.0776 -19.87797 -7.62215 -4.09375 -2.85487 35.57474 7.22553 3.81382 -26.20116 -9.45329 5.26027 3.60375
0.0607 0.01282 -0.03738 -18.84423 -22.50905 2.7305 45.59494 2.27795 -6.68399 -16.83802 -0.52402 -0.51195 -18.37695 -9.96169 -10.49156 35.67789 114.04549 11.0398 4.47491 -28.76721 17.06527 -3.40895 50.75127 -108.64836 15.26703 -1.95764 31.91865 -1.76875 -9.37636 -19.73337 -7.62485 -4.03554 -2.82422 35.29965 7.23457 4.70201 -26.15865 -9.3338 5.21755 3.57543
0.06291 0.01334 -0.04085 -19.07995 -22.49563 2.63494 45.39464 2.26356 -6.87863 -16.69502 -0.23702 -0.51272 -18.67589 -9.81094 -11.33776 35.62034 118.13821 12.1389 5.09508 -28.81809 17.15302 -3.80733 50.49262 -103.67665 13.84748 -1.19054 31.78277 -1.94616 -9.39001 -19.61188 -7.64884 -4.00597 -2.80959 35.12106 7.22468 5.53324 -26.13042 -9.22648 5.18217 3.55142
0.06461 0.01385 -0.04479 -19.49191 -22.73828 2.56322 45.26326 2.26917 -7.04039 -16.57515 -0.10879 -0.51314 -19.04954 -10.25015 -10.65631 35.74652 114.47135 11.17387 4.50532 -28.70919 17.20626 -3.93643 49.80601 -102.85652 13.56207 -1.08069 32.04819 -2.01182 -8.56371 -19.55704 -7.73194 -4.06092 -2.84224 35.22761 7.16947 6.24453 -26.14761 -9.14632 5.16526 3.53733
0.06608 0.01435 -0.04893 -19.97208 -23.0659 2.49714 45.13976 2.28067 -7.19482 -16.46587 -0.04014 -0.51374 -19.44756 -10.89081 -9.46458 35.946 108.22308 9.52263 3.51336 -28.54042 17.25622 -3.9817 48.95882 -103.35092 13.62936 -1.18072 32.45571 -2.03843 -7.46101 -19.52899 -7.83559 -4.14329 -2.89021 35.43213 7.09481 6.8907 -26.17942 -9.07936 5.15641 3.52801
0.0676 0.01485 -0.05297 -20.4263 -23.34913 2.426 45.00003 2.28749 -7.35697 -16.35429 0.05374 -0.51463 -19.82671 -11.42524 -8.54314 36.11703 103.35553 8.23887 2.73734 -28.3992 17.3121 -4.0644 48.18808 -103.18717 13.51467 -1.17704 32.79645 -2.08477 -6.51923 -19.49089 -7.92794 -4.20886 -2.92877 35.58891 7.0265 7.54273 -26.20342 -9.00978 5.14561 3.51784
0.06933 0.01538 -0.05705 -20.85864 -23.65489 2.36481 44.90973 2.30364 -7.50139 -16.23201 0.15602 -0.51397 -20.24048 -12.02285 -7.46673 36.26888 97.63457 6.72677 1.82463 -28.25709 17.3524 -4.15982 47.3992 -103.18348 13.46394 -1.19352 33.14152 -2.12233 -5.42561 -19.43732 -8.02898 -4.29317 -2.97791 35.75766 6.96761 8.29362 -26.23167 -8.92619 5.12759 3.5022
